<?xml version="1.0" encoding="utf-8"?>
<!-- Generator: Adobe Illustrator 16.0.0, SVG Export Plug-In . SVG Version: 6.00 Build 0)  -->
<!DOCTYPE svg PUBLIC "-//W3C//DTD SVG 1.1//EN" "http://www.w3.org/Graphics/SVG/1.1/DTD/svg11.dtd">
<svg version="1.1" id="Layer_1" xmlns="http://www.w3.org/2000/svg" xmlns:xlink="http://www.w3.org/1999/xlink" x="0px" y="0px"
	 width="800px" height="400px" viewBox="0 0 800 400" enable-background="new 0 0 800 400" xml:space="preserve">
<g transform="translate(50,20)">
	<rect x="70" y="332.5" fill="#AAAADD" width="42.63" height="16.5"/>
	<rect x="70" y="315" fill="#AAAADC" width="57.525" height="16.5"/>
	<rect x="70" y="297.5" fill="#A9A9DC" width="7.19" height="16.5"/>
	<rect x="70" y="280" fill="#A9A9DB" width="34.413" height="16.5"/>
	<rect x="70" y="262.5" fill="#A8A8DB" width="58.553" height="16.5"/>
	<rect x="70" y="245" fill="#A8A8DA" width="39.035" height="16.5"/>
	<rect x="70" y="227.5" fill="#A8A8DA" width="6.164" height="16.5"/>
	<rect x="70" y="210" fill="#A7A7D9" width="11.813" height="16.5"/>
	<rect x="70" y="192.5" fill="#A7A7D8" width="34.413" height="16.5"/>
	<rect x="70" y="175" fill="#A6A6D8" width="31.844" height="16.5"/>
	<rect x="70" y="157.5" fill="#A6A6D7" width="59.58" height="16.5"/>
	<rect x="70" y="140" fill="#A6A6D7" width="7.19" height="16.5"/>
	<rect x="70" y="122.5" fill="#A5A5D6" width="54.443" height="16.5"/>
	<rect x="70" y="105" fill="#A5A5D6" width="7.704" height="16.5"/>
	<rect x="70" y="87.5" fill="#A4A4D5" width="45.712" height="16.5"/>
	<rect x="70" y="70" fill="#A4A4D4" width="29.79" height="16.5"/>
	<rect x="70" y="52.5" fill="#A3A3D4" width="5.65" height="16.5"/>
	<rect x="70" y="35" fill="#A3A3D3" width="50.334" height="16.5"/>
	<rect x="70" y="17.5" fill="#A3A3D3" width="59.58" height="16.5"/>
	<rect x="70" fill="#A2A2D2" width="32.872" height="16.5"/>
	<rect x="130.607" y="332.5" fill="#A2A2D2" width="30.817" height="16.5"/>
	<rect x="130.607" y="315" fill="#A1A1D1" width="29.79" height="16.5"/>
	<rect x="130.607" y="297.5" fill="#A1A1D0" width="33.385" height="16.5"/>
	<rect x="130.607" y="280" fill="#A1A1D0" width="39.549" height="16.5"/>
	<rect x="130.607" y="262.5" fill="#A0A0CF" width="10.272" height="16.5"/>
	<rect x="130.607" y="245" fill="#A0A0CF" width="34.926" height="16.5"/>
	<rect x="130.607" y="227.5" fill="#9F9FCE" width="8.218" height="16.5"/>
	<rect x="130.607" y="210" fill="#9F9FCE" width="34.926" height="16.5"/>
	<rect x="130.607" y="192.5" fill="#9F9FCD" width="32.358" height="16.5"/>
	<rect x="130.607" y="175" fill="#9E9ECC" width="22.085" height="16.5"/>
	<rect x="130.607" y="157.5" fill="#9E9ECC" width="20.545" height="16.5"/>
	<rect x="130.607" y="140" fill="#9D9DCB" width="57.525" height="16.5"/>
	<rect x="130.607" y="122.5" fill="#9D9DCB" width="21.059" height="16.5"/>
	<rect x="130.607" y="105" fill="#9D9DCA" width="49.821" height="16.5"/>
	<rect x="130.607" y="87.5" fill="#9C9CCA" width="52.389" height="16.5"/>
	<rect x="130.607" y="70" fill="#9C9CC9" width="47.767" height="16.5"/>
	<rect x="130.607" y="52.5" fill="#9B9BC9" width="49.308" height="16.5"/>
	<rect x="130.607" y="35" fill="#9B9BC8" width="17.463" height="16.5"/>
	<rect x="130.607" y="17.5" fill="#9B9BC7" width="60.093" height="16.5"/>
	<rect x="130.607" fill="#9A9AC7" width="6.164" height="16.5"/>
	<rect x="191.728" y="332.5" fill="#9A9AC6" width="11.813" height="16.5"/>
	<rect x="191.728" y="315" fill="#9999C6" width="52.903" height="16.5"/>
	<rect x="191.728" y="297.5" fill="#9999C5" width="60.093" height="16.5"/>
	<rect x="191.728" y="280" fill="#9999C5" width="20.031" height="16.5"/>
	<rect x="191.728" y="262.5" fill="#9898C4" width="5.65" height="16.5"/>
	<rect x="191.728" y="245" fill="#9898C3" width="19.004" height="16.5"/>
	<rect x="191.728" y="227.5" fill="#9797C3" width="5.136" height="16.5"/>
	<rect x="191.728" y="210" fill="#9797C2" width="9.759" height="16.5"/>
	<rect x="191.728" y="192.5" fill="#9696C2" width="45.712" height="16.5"/>
	<rect x="191.728" y="175" fill="#9696C1" width="13.354" height="16.5"/>
	<rect x="191.728" y="157.5" fill="#9696C1" width="24.654" height="16.5"/>
	<rect x="191.728" y="140" fill="#9595C0" width="29.79" height="16.5"/>
	<rect x="191.728" y="122.5" fill="#9595BF" width="9.759" height="16.5"/>
	<rect x="191.728" y="105" fill="#9494BF" width="27.735" height="16.5"/>
	<rect x="191.728" y="87.5" fill="#9494BE" width="53.417" height="16.5"/>
	<rect x="191.728" y="70" fill="#9494BE" width="52.903" height="16.5"/>
	<rect x="191.728" y="52.5" fill="#9393BD" width="21.059" height="16.5"/>
	<rect x="191.728" y="35" fill="#9393BD" width="39.035" height="16.5"/>
	<rect x="191.728" y="17.5" fill="#9292BC" width="47.253" height="16.5"/>
	<rect x="191.728" fill="#9292BB" width="34.926" height="16.5"/>
	<rect x="252.848" y="332.5" fill="#9292BB" width="12.84" height="16.5"/>
	<rect x="252.848" y="315" fill="#9191BA" width="11.3" height="16.5"/>
	<rect x="252.848" y="297.5" fill="#9191BA" width="31.844" height="16.5"/>
	<rect x="252.848" y="280" fill="#9090B9" width="45.712" height="16.5"/>
	<rect x="252.848" y="262.5" fill="#9090B9" width="8.218" height="16.5"/>
	<rect x="252.848" y="245" fill="#9090B8" width="54.958" height="16.5"/>
	<rect x="252.848" y="227.5" fill="#8F8FB7" width="44.171" height="16.5"/>
	<rect x="252.848" y="210" fill="#8F8FB7" width="50.335" height="16.5"/>
	<rect x="252.848" y="192.5" fill="#8E8EB6" width="53.93" height="16.5"/>
	<rect x="252.848" y="175" fill="#8E8EB6" width="52.903" height="16.5"/>
	<rect x="252.848" y="157.5" fill="#8E8EB5" width="27.735" height="16.5"/>
	<rect x="252.848" y="140" fill="#8D8DB5" width="6.677" height="16.5"/>
	<rect x="252.848" y="122.5" fill="#8D8DB4" width="26.708" height="16.5"/>
	<rect x="252.848" y="105" fill="#8C8CB3" width="32.872" height="16.5"/>
	<rect x="252.848" y="87.5" fill="#8C8CB3" width="14.381" height="16.5"/>
	<rect x="252.848" y="70" fill="#8B8BB2" width="34.413" height="16.5"/>
	<rect x="252.848" y="52.5" fill="#8B8BB2" width="34.926" height="16.5"/>
	<rect x="252.848" y="35" fill="#8B8BB1" width="50.335" height="16.5"/>
	<rect x="252.848" y="17.5" fill="#8A8AB1" width="5.65" height="16.5"/>
	<rect x="252.848" fill="#8A8AB0" width="13.354" height="16.5"/>
	<rect x="308.833" y="332.5" fill="#8989AF" width="59.58" height="16.5"/>
	<rect x="308.833" y="315" fill="#8989AF" width="60.093" height="16.5"/>
	<rect x="308.833" y="297.5" fill="#8989AE" width="57.526" height="16.5"/>
	<rect x="308.833" y="280" fill="#8888AE" width="6.677" height="16.5"/>
	<rect x="308.833" y="262.5" fill="#8888AD" width="30.817" height="16.5"/>
	<rect x="308.833" y="245" fill="#8787AD" width="27.735" height="16.5"/>
	<rect x="308.833" y="227.5" fill="#8787AC" width="58.039" height="16.5"/>
	<rect x="308.833" y="210" fill="#8787AB" width="37.495" height="16.5"/>
	<rect x="308.833" y="192.5" fill="#8686AB" width="28.763" height="16.5"/>
	<rect x="308.833" y="175" fill="#8686AA" width="9.245" height="16.5"/>
	<rect x="308.833" y="157.5" fill="#8585AA" width="58.552" height="16.5"/>
	<rect x="308.833" y="140" fill="#8585A9" width="22.599" height="16.5"/>
	<rect x="308.833" y="122.5" fill="#8585A9" width="33.385" height="16.5"/>
	<rect x="308.833" y="105" fill="#8484A8" width="29.79" height="16.5"/>
	<rect x="308.833" y="87.5" fill="#8484A7" width="12.841" height="16.5"/>
	<rect x="308.833" y="70" fill="#8383A7" width="50.848" height="16.5"/>
	<rect x="308.833" y="52.5" fill="#8383A6" width="50.848" height="16.5"/>
	<rect x="308.833" y="35" fill="#8383A6" width="30.817" height="16.5"/>
	<rect x="308.833" y="17.5" fill="#8282A5" width="52.389" height="16.5"/>
	<rect x="308.833" fill="#8282A5" width="45.199" height="16.5"/>
	<rect x="369.953" y="332.5" fill="#8181A4" width="44.172" height="16.5"/>
	<rect x="369.953" y="315" fill="#8181A3" width="59.066" height="16.5"/>
	<rect x="369.953" y="297.5" fill="#8181A3" width="31.845" height="16.5"/>
	<rect x="369.953" y="280" fill="#8080A2" width="20.031" height="16.5"/>
	<rect x="369.953" y="262.5" fill="#8080A2" width="24.141" height="16.5"/>
	<rect x="369.953" y="245" fill="#7F7FA1" width="13.868" height="16.5"/>
	<rect x="369.953" y="227.5" fill="#7F7FA1" width="26.708" height="16.5"/>
	<rect x="369.953" y="210" fill="#7E7EA0" width="9.759" height="16.5"/>
	<rect x="369.953" y="192.5" fill="#7E7EA0" width="42.117" height="16.5"/>
	<rect x="369.953" y="175" fill="#7E7E9F" width="53.93" height="16.5"/>
	<rect x="369.953" y="157.5" fill="#7D7D9E" width="31.331" height="16.5"/>
	<rect x="369.953" y="140" fill="#7D7D9E" width="34.413" height="16.5"/>
	<rect x="369.953" y="122.5" fill="#7C7C9D" width="10.272" height="16.5"/>
	<rect x="369.953" y="105" fill="#7C7C9D" width="48.28" height="16.5"/>
	<rect x="369.953" y="87.5" fill="#7C7C9C" width="6.677" height="16.5"/>
	<rect x="369.953" y="70" fill="#7B7B9C" width="40.576" height="16.5"/>
	<rect x="369.953" y="52.5" fill="#7B7B9B" width="54.443" height="16.5"/>
	<rect x="369.953" y="35" fill="#7A7A9A" width="27.735" height="16.5"/>
	<rect x="369.953" y="17.5" fill="#7A7A9A" width="50.335" height="16.5"/>
	<rect x="369.953" fill="#7A7A99" width="50.849" height="16.5"/>
	<rect x="430.047" y="332.5" fill="#797999" width="40.062" height="16.5"/>
	<rect x="430.047" y="315" fill="#797998" width="19.518" height="16.5"/>
	<rect x="430.047" y="297.5" fill="#787898" width="57.012" height="16.5"/>
	<rect x="430.047" y="280" fill="#787897" width="7.19" height="16.5"/>
	<rect x="430.047" y="262.5" fill="#787896" width="6.677" height="16.5"/>
	<rect x="430.047" y="245" fill="#777796" width="20.545" height="16.5"/>
	<rect x="430.047" y="227.5" fill="#777795" width="51.361" height="16.5"/>
	<rect x="430.047" y="210" fill="#767695" width="19.518" height="16.5"/>
	<rect x="430.047" y="192.5" fill="#767694" width="17.463" height="16.5"/>
	<rect x="430.047" y="175" fill="#767694" width="41.603" height="16.5"/>
	<rect x="430.047" y="157.5" fill="#757593" width="51.361" height="16.5"/>
	<rect x="430.047" y="140" fill="#757592" width="10.272" height="16.5"/>
	<rect x="430.047" y="122.5" fill="#747492" width="43.657" height="16.5"/>
	<rect x="430.047" y="105" fill="#747491" width="13.354" height="16.5"/>
	<rect x="430.047" y="87.5" fill="#747491" width="8.218" height="16.5"/>
	<rect x="430.047" y="70" fill="#737390" width="51.875" height="16.5"/>
	<rect x="430.047" y="52.5" fill="#737390" width="13.867" height="16.5"/>
	<rect x="430.047" y="35" fill="#72728F" width="28.763" height="16.5"/>
	<rect x="430.047" y="17.5" fill="#72728E" width="13.867" height="16.5"/>
	<rect x="430.047" fill="#71718E" width="13.354" height="16.5"/>
	<rect x="488.086" y="332.5" fill="#71718D" width="49.307" height="16.5"/>
	<rect x="488.086" y="315" fill="#71718D" width="46.739" height="16.5"/>
	<rect x="488.086" y="297.5" fill="#70708C" width="19.518" height="16.5"/>
	<rect x="488.086" y="280" fill="#70708C" width="52.389" height="16.5"/>
	<rect x="488.086" y="262.5" fill="#6F6F8B" width="57.012" height="16.5"/>
	<rect x="488.086" y="245" fill="#6F6F8A" width="27.222" height="16.5"/>
	<rect x="488.086" y="227.5" fill="#6F6F8A" width="58.039" height="16.5"/>
	<rect x="488.086" y="210" fill="#6E6E89" width="17.463" height="16.5"/>
	<rect x="488.086" y="192.5" fill="#6E6E89" width="6.677" height="16.5"/>
	<rect x="488.086" y="175" fill="#6D6D88" width="13.867" height="16.5"/>
	<rect x="488.086" y="157.5" fill="#6D6D88" width="21.058" height="16.5"/>
	<rect x="488.086" y="140" fill="#6D6D87" width="11.812" height="16.5"/>
	<rect x="488.086" y="122.5" fill="#6C6C86" width="61.634" height="16.5"/>
	<rect x="488.086" y="105" fill="#6C6C86" width="28.249" height="16.5"/>
	<rect x="488.086" y="87.5" fill="#6B6B85" width="57.012" height="16.5"/>
	<rect x="488.086" y="70" fill="#6B6B85" width="18.49" height="16.5"/>
	<rect x="488.086" y="52.5" fill="#6B6B84" width="8.731" height="16.5"/>
	<rect x="488.086" y="35" fill="#6A6A84" width="20.031" height="16.5"/>
	<rect x="488.086" y="17.5" fill="#6A6A83" width="14.381" height="16.5"/>
	<rect x="488.086" fill="#696982" width="38.008" height="16.5"/>
	<rect x="550.747" y="332.5" fill="#696982" width="36.467" height="16.5"/>
	<rect x="550.747" y="315" fill="#696981" width="22.6" height="16.5"/>
	<rect x="550.747" y="297.5" fill="#686881" width="44.685" height="16.5"/>
	<rect x="550.747" y="280" fill="#686880" width="39.549" height="16.5"/>
	<rect x="550.747" y="262.5" fill="#676780" width="50.335" height="16.5"/>
	<rect x="550.747" y="245" fill="#67677F" width="57.012" height="16.5"/>
	<rect x="550.747" y="227.5" fill="#66667E" width="27.222" height="16.5"/>
	<rect x="550.747" y="210" fill="#66667E" width="53.93" height="16.5"/>
	<rect x="550.747" y="192.5" fill="#66667D" width="35.953" height="16.5"/>
	<rect x="550.747" y="175" fill="#65657D" width="50.849" height="16.5"/>
	<rect x="550.747" y="157.5" fill="#65657C" width="7.19" height="16.5"/>
	<rect x="550.747" y="140" fill="#64647C" width="31.845" height="16.5"/>
	<rect x="550.747" y="122.5" fill="#64647B" width="13.868" height="16.5"/>
	<rect x="550.747" y="105" fill="#64647A" width="21.059" height="16.5"/>
	<rect x="550.747" y="87.5" fill="#63637A" width="31.845" height="16.5"/>
	<rect x="550.747" y="70" fill="#636379" width="37.494" height="16.5"/>
	<rect x="550.747" y="52.5" fill="#626279" width="28.763" height="16.5"/>
	<rect x="550.747" y="35" fill="#626278" width="45.198" height="16.5"/>
	<rect x="550.747" y="17.5" fill="#626278" width="8.218" height="16.5"/>
	<rect x="550.747" fill="#616177" width="57.525" height="16.5"/>
	<rect x="609.3" y="332.5" fill="#616177" width="6.677" height="16.5"/>
	<rect x="609.3" y="315" fill="#606076" width="19.004" height="16.5"/>
	<rect x="609.3" y="297.5" fill="#606075" width="10.272" height="16.5"/>
	<rect x="609.3" y="280" fill="#606075" width="22.085" height="16.5"/>
	<rect x="609.3" y="262.5" fill="#5F5F74" width="53.416" height="16.5"/>
	<rect x="609.3" y="245" fill="#5F5F74" width="51.361" height="16.5"/>
	<rect x="609.3" y="227.5" fill="#5E5E73" width="44.171" height="16.5"/>
	<rect x="609.3" y="210" fill="#5E5E73" width="57.525" height="16.5"/>
	<rect x="609.3" y="192.5" fill="#5E5E72" width="61.12" height="16.5"/>
	<rect x="609.3" y="175" fill="#5D5D71" width="23.112" height="16.5"/>
	<rect x="609.3" y="157.5" fill="#5D5D71" width="35.439" height="16.5"/>
	<rect x="609.3" y="140" fill="#5C5C70" width="21.059" height="16.5"/>
	<rect x="609.3" y="122.5" fill="#5C5C70" width="28.763" height="16.5"/>
	<rect x="609.3" y="105" fill="#5C5C6F" width="36.98" height="16.5"/>
	<rect x="609.3" y="87.5" fill="#5B5B6F" width="22.599" height="16.5"/>
	<rect x="609.3" y="70" fill="#5B5B6E" width="26.708" height="16.5"/>
	<rect x="609.3" y="52.5" fill="#5A5A6D" width="29.276" height="16.5"/>
	<rect x="609.3" y="35" fill="#5A5A6D" width="25.681" height="16.5"/>
	<rect x="609.3" y="17.5" fill="#59596C" width="42.116" height="16.5"/>
	<rect x="609.3" fill="#59596C" width="6.163" height="16.5"/>
	<rect x="671.447" y="332.5" fill="#59596B" width="21.572" height="16.5"/>
	<rect x="671.447" y="315" fill="#58586B" width="58.553" height="16.5"/>
	<rect x="671.447" y="297.5" fill="#58586A" width="38.521" height="16.5"/>
	<rect x="671.447" y="280" fill="#575769" width="38.521" height="16.5"/>
	<rect x="671.447" y="262.5" fill="#575769" width="29.79" height="16.5"/>
	<rect x="671.447" y="245" fill="#575768" width="23.113" height="16.5"/>
	<rect x="671.447" y="227.5" fill="#565668" width="53.93" height="16.5"/>
	<rect x="671.447" y="210" fill="#565667" width="9.759" height="16.5"/>
	<rect x="671.447" y="192.5" fill="#555567" width="41.09" height="16.5"/>
	<rect x="671.447" y="175" fill="#555566" width="50.335" height="16.5"/>
	<text transform="matrix(1 0 0 1 5.9346 343.5)" font-family="'Helvetica'" font-size="11">node0000</text>
	<text transform="matrix(1 0 0 1 5.5293 326)" font-family="'Helvetica'" font-size="11">node0001</text>
	<text transform="matrix(1 0 0 1 5.5293 308.75)" font-family="'Helvetica'" font-size="11">node0002</text>
	<text transform="matrix(1 0 0 1 5.5293 291)" font-family="'Helvetica'" font-size="11">node0003</text>
	<text transform="matrix(1 0 0 1 5.5293 272.75)" font-family="'Helvetica'" font-size="11">node0004</text>
	<text transform="matrix(1 0 0 1 5.5293 256)" font-family="'Helvetica'" font-size="11">node0005</text>
	<text transform="matrix(1 0 0 1 5.5293 235.75)" font-family="'Helvetica'" font-size="11">node0006</text>
	<text transform="matrix(1 0 0 1 5.5293 218.25)" font-family="'Helvetica'" font-size="11">node0007</text>
	<text transform="matrix(1 0 0 1 5.5293 200.75)" font-family="'Helvetica'" font-size="11">node0008</text>
	<text transform="matrix(1 0 0 1 5.5293 183.25)" font-family="'Helvetica'" font-size="11">node0009</text>
	<text transform="matrix(1 0 0 1 5.5293 165.75)" font-family="'Helvetica'" font-size="11">node0010</text>
	<text transform="matrix(1 0 0 1 5.9346 148.25)" font-family="'Helvetica'" font-size="11">node0011</text>
	<text transform="matrix(1 0 0 1 5.5293 130.75)" font-family="'Helvetica'" font-size="11">node0012</text>
	<text transform="matrix(1 0 0 1 5.5293 113.25)" font-family="'Helvetica'" font-size="11">node0013</text>
	<text transform="matrix(1 0 0 1 5.5293 95.75)" font-family="'Helvetica'" font-size="11">node0014</text>
	<text transform="matrix(1 0 0 1 5.5293 78.25)" font-family="'Helvetica'" font-size="11">node0015</text>
	<text transform="matrix(1 0 0 1 5.5293 60.75)" font-family="'Helvetica'" font-size="11">node0016</text>
	<text transform="matrix(1 0 0 1 5.5293 43.25)" font-family="'Helvetica'" font-size="11">node0017</text>
	<text transform="matrix(1 0 0 1 5.5293 25.75)" font-family="'Helvetica'" font-size="11">node0018</text>
	<text transform="matrix(1 0 0 1 5.5293 8.25)" font-family="'Helvetica'" font-size="11">node0019</text>
	<g transform="translate(0,350)">
		<g transform="translate(223.05836575875486,0)">
			<line fill="none" x1="0" y1="0" x2="0" y2="6"/>
			<text transform="matrix(1 0 0 1 -15.0144 17.5195)" font-family="'ArialMT'" font-size="12">07:05</text>
		</g>
		<g transform="translate(377.14396887159535,0)">
			<line fill="none" x1="0" y1="0" x2="0" y2="6"/>
			<text transform="matrix(1 0 0 1 -15.0151 17.5195)" font-family="'ArialMT'" font-size="12">07:10</text>
		</g>
		<g transform="translate(531.2295719844358,0)">
			<line fill="none" x1="0" y1="0" x2="0" y2="6"/>
			<text transform="matrix(1 0 0 1 -15.0147 17.5195)" font-family="'ArialMT'" font-size="12">07:15</text>
		</g>
		<g transform="translate(685.3151750972763,0)">
			<line fill="none" x1="0" y1="0" x2="0" y2="6"/>
			<text transform="matrix(1 0 0 1 -15.0144 17.5195)" font-family="'ArialMT'" font-size="12">07:20</text>
		</g>
		<path d="M70,6V0h660v6"/>
	</g>
</g>
</svg>
